<svg width="887" height="793" xmlns="http://www.w3.org/2000/svg" stroke="null" style="vector-effect: non-scaling-stroke;">
 <title stroke="null" style="vector-effect: non-scaling-stroke;">lost_online</title>

 <g stroke="null">
  <title stroke="null">Layer 1</title>
  <ellipse stroke="null" cx="714.91704" cy="763" rx="167.08296" ry="25" fill="#e6e6e6" id="svg_1"/>
  <circle stroke="null" cx="652.85898" cy="178.42493" r="71.88313" fill="#f2f2f2" id="svg_3"/>
  <circle stroke="null" style="vector-effect: non-scaling-stroke;" cx="432.07507" cy="32.60485" r="6.16141" fill="#00ffa1" id="svg_2"/>
  <circle stroke="null" cx="632.32095" cy="445.41942" r="6.16141" fill="#00ffa1" id="svg_5"/>
  <circle stroke="null" cx="652.85898" cy="32.60485" r="6.16141" fill="#c9c9c9" id="svg_6"/>
  <circle stroke="null" cx="739.11874" cy="329.37951" r="6.16141" fill="#f2f2f2" id="svg_7"/>
  <circle stroke="null" cx="493.68919" cy="198.96296" r="6.16141" fill="#c9c9c9" id="svg_8"/>
  <circle stroke="null" cx="168.16128" cy="157.88689" r="6.16141" fill="#c9c9c9" id="svg_9"/>
  <circle stroke="null" cx="284.2012" cy="410.91879" r="209.48799" fill="#f4f4f4" id="svg_10"/>
  <circle stroke="null" cx="274.95908" cy="328.3526" r="30.80706" opacity="0.2" id="svg_11"/>
  <circle stroke="null" cx="274.95908" cy="534.75989" r="53.3989" opacity="0.2" id="svg_12"/>
  <circle stroke="null" cx="646.60588" cy="141.34643" r="7.09663" opacity="0.2" id="svg_14"/>
  <circle stroke="null" cx="345.72362" cy="282.03199" r="7.09663" opacity="0.2" id="svg_15"/>
  <circle stroke="null" cx="265.71696" cy="422.82758" r="9.24212" opacity="0.2" id="svg_16"/>
  <circle stroke="null" cx="629.33193" cy="198.04609" r="7.09663" opacity="0.2" id="svg_17"/>
  <circle stroke="null" cx="438.32817" cy="372.61941" r="7.09663" opacity="0.2" id="svg_18"/>
  <circle stroke="null" cx="692.9265" cy="191.35289" r="10.25068" opacity="0.2" id="svg_19"/>
  <circle stroke="null" cx="379.72141" cy="444.99766" r="10.25068" opacity="0.2" id="svg_20"/>
  <circle stroke="null" cx="154.81156" cy="328.3526" r="13.34972" opacity="0.2" id="svg_21"/>
  <path stroke="null" d="m330.58946,534.3377a586.0229,586.0229 0 0 1 -65.92931,-3.80977c-65.831,-7.47613 -126.5456,-25.142 -170.95911,-49.74257c-44.957,-24.90237 -67.96155,-54.06077 -64.777,-82.104c2.20623,-19.42891 20.9853,-36.81905 57.40973,-53.16223a2.05428,2.05428 0 0 1 1.68175,3.74859c-34.98737,15.69736 -52.98122,32.01246 -55.00995,49.87695c-2.98544,26.28527 19.277,54.0026 62.68614,78.04755c43.95221,24.3458 104.12425,41.83723 169.4318,49.25419c65.308,7.417 127.86934,3.86291 176.16181,-10.00628c47.69579,-13.69871 75.60666,-35.71794 78.59109,-62.00321c2.01971,-17.78226 -7.775,-36.63654 -28.325,-54.52609a2.05423,2.05423 0 0 1 2.69762,-3.09876c21.61508,18.81718 31.88812,38.90394 29.709,58.08815c-3.185,28.04325 -32.14183,51.301 -81.53842,65.48706c-32.16152,9.2371 -70.54899,13.95042 -111.83015,13.95042z" fill="#e5e5e5" id="svg_22"/>
  <polygon stroke="null" points="651.7860107421875,722.4343465566635 653.2410278320312,735.534322142601 640.1420288085938,734.0783284902573 640.1420288085938,718.0673421621323 651.7860107421875,722.4343465566635 " fill="#ffcccc" id="svg_23"/>
  <polygon stroke="null" points="788.6069946289062,722.4343465566635 787.1510009765625,735.534322142601 800.2509765625,734.0783284902573 800.2509765625,718.0673421621323 788.6069946289062,722.4343465566635 " fill="#ffcccc" id="svg_24"/>
  <path stroke="null" d="m650.33033,438.72552l-5.82218,149.921s-18.92206,112.07687 -14.55543,114.988s0,18.92207 0,18.92207l24.74424,2.91109s0,-11.64435 5.82218,-16.011s59.67729,-209.5983 59.67729,-209.5983l55.31066,197.954s-1.45554,11.64435 2.91109,11.64435s5.82218,16.011 5.82218,16.011l24.74424,0l0,-16.011s7.27772,-1.45554 2.91109,-13.09989s-20.37762,-257.63125 -20.37762,-257.63125l-141.18774,-0.00007z" fill="#2f2e41" id="svg_25"/>
  <path stroke="null" d="m643.05261,721.101s-7.27772,-4.36663 -10.18881,-1.45554s-26.19978,32.022 -26.19978,32.022s-32.022,20.37761 -2.91109,26.19979s50.944,-21.83316 52.39957,-24.74425s-1.45554,-26.19979 -2.91108,-23.2887s-5.82218,1.45555 -7.27772,0s-2.91109,-8.7333 -2.91109,-8.7333z" fill="#2f2e41" id="svg_26"/>
  <path stroke="null" d="m797.34025,721.101s7.27772,-4.36663 10.18881,-1.45554s26.19978,32.022 26.19978,32.022s32.022,20.37761 2.91109,26.19979s-50.944,-21.83316 -52.39957,-24.74425s1.45554,-26.19979 2.91108,-23.2887s5.82218,1.45555 7.27772,0s2.91109,-8.7333 2.91109,-8.7333z" fill="#2f2e41" id="svg_27"/>
  <circle stroke="null" cx="738.39073" cy="193.4664" r="29.83865" fill="#ffcece" id="svg_28"/>
  <polygon stroke="null" points="718.7410278320312,208.87166845798492 714.3740234375,253.9936624765396 749.3070068359375,261.27167761325836 758.041015625,207.41666662693024 718.7410278320312,208.87166845798492 " fill="#ffcece" id="svg_29"/>
  <path stroke="null" d="m755.12948,245.1382s-8.73326,18.92207 -40.75523,-1.45554l-59.67725,195.04286s80.05491,48.03294 130.99894,11.64435l-17.46657,-196.49841l-13.09989,-8.73326z" fill="#404263" id="svg_30"/>
  <path stroke="null" d="m720.19643,223.305l-27.65533,-4.36663l-2.9111,18.92211s-37.84414,4.36663 -42.21077,18.92207l4.36663,107.71024s-13.09989,23.2887 -1.45554,37.84414c0,0 -18.92207,39.29968 -4.36663,46.5774c0,0 33.4775,-16.011 53.85512,-11.64435c0,0 11.64435,-2.91109 11.64435,-11.64435s8.73327,-202.32063 8.73327,-202.32063z" fill="#2f2e41" id="svg_31"/>
  <path stroke="null" d="m753.67394,226.21613l16.011,4.36663l1.45554,20.37761s39.29968,24.74425 40.75523,39.29969s-29.11088,84.42153 -29.11088,84.42153s11.64435,20.37762 7.27772,33.47751c0,0 18.92207,37.84414 7.27772,48.03295c0,0 -21.83316,5.82217 -24.74424,-2.91109s-29.11088,-109.16578 -17.46653,-157.19873c-0.00002,0 -11.64437,-61.13284 -1.45556,-69.8661z" fill="#2f2e41" id="svg_32"/>
  <path stroke="null" d="m770.41269,273.61839l-0.54785,0l0,-15.00827a8.68638,8.68638 0 0 0 -8.68641,-8.6864l-31.797,0a8.68638,8.68638 0 0 0 -8.68641,8.6864l0,82.33656a8.68638,8.68638 0 0 0 8.68641,8.68639l31.797,0a8.68638,8.68638 0 0 0 8.68641,-8.68639l0,-56.64515l0.54785,0l0,-10.68314z" fill="#fff" id="svg_33"/>
  <path stroke="null" d="m784.24036,332.47083s-11.64436,-37.84414 -29.11088,-26.19983s11.64435,43.66631 11.64435,43.66631l17.46653,-17.46648z" fill="#ffcece" id="svg_34"/>
  <path stroke="null" d="m704.18545,304.81549s20.37761,-24.74424 30.56642,-13.09989s-17.46653,37.84414 -17.46653,37.84414l-13.09989,-24.74425z" fill="#ffcece" id="svg_35"/>
  <path stroke="null" d="m651.78587,255.327s-7.27772,-1.45555 -11.64435,11.64435s-20.37761,62.58838 -20.37761,71.32164s5.82218,43.66631 37.84414,37.84414s69.8661,-46.5774 69.8661,-46.5774l-20.37761,-30.56642l-43.66632,26.19979l-11.64435,-69.8661z" fill="#2f2e41" id="svg_36"/>
  <polygon stroke="null" points="658.075 293.062 664.158 324.465 709.28 298.266 667.069 314.277 657.763 291.188 658.075 293.062" opacity="0.1" id="svg_37"/>
  <polygon stroke="null" points="786.424 324.465 792.246 328.832 795.157 308.454 786.424 324.465" opacity="0.1" id="svg_38"/>
  <path stroke="null" d="m651.0581,379.776s42.75331,-11.63082 62.85965,-37.1096c0,0 -20.64888,34.19851 -62.85965,37.1096z" opacity="0.1" id="svg_39"/>
  <path stroke="null" d="m758.76834,353.57621s9.00267,44.05947 32.15667,45.31843c-0.00001,0 -27.79001,8.53669 -32.15667,-45.31843z" opacity="0.1" id="svg_40"/>
  <path stroke="null" d="m806.07351,284.43788s4.36663,2.91109 7.27772,16.011s21.83316,62.58838 14.55544,74.23273s-18.92207,37.84414 -43.66631,20.37762l-24.74425,-45.12186l24.74425,-23.2887l10.1888,7.27772l11.64435,-49.48851z" fill="#2f2e41" id="svg_41"/>
  <path stroke="null" d="m711.48412,206.41831s-24.41097,-51.99331 1.59001,-54.69752a66.28869,87.11676 0 0 0 24.93479,-8.92891c8.61872,-5.76376 19.46765,-10.14479 25.24089,-1.2722a42.89933,56.37841 0 0 0 8.72696,10.62485c5.07137,4.42002 10.93914,11.58531 7.68993,19.27153l-5.32676,12.60078l-7.45751,25.20159c1.73666,-10.87014 1.78034,-19.99694 -2.6634,-24.50155c0,0 -24.79259,13.86577 -37.28716,-11.20069c-13.98685,-13.79166 -18.43681,29.61835 -15.44775,32.90212z" fill="#2f2e41" id="svg_42"/>
  <circle stroke="null" cx="745.66845" cy="279.34348" r="7.27772" fill="#00ff83" id="svg_43"/>
  <circle stroke="null" cx="121.57506" cy="452.10476" r="12.16142" fill="#00ffa1" id="svg_4"/>
 </g>
</svg>
