<svg width="887" height="793" xmlns="http://www.w3.org/2000/svg">
 <title>lost_online</title>

 <g>
  <title>Layer 1</title>
  <ellipse id="svg_1" fill="#e6e6e6" ry="25" rx="167.08296" cy="763" cx="714.91704"/>
  <circle id="svg_3" fill="#f2f2f2" r="71.88313" cy="178.42493" cx="652.85898"/>
  <circle id="svg_4" fill="#00ffa1" r="6.16141" cy="32.60485" cx="432.07507"/>
  <circle id="svg_5" fill="#00ffa1" r="6.16141" cy="445.41942" cx="632.32095"/>
  <circle id="svg_6" fill="#c9c9c9" r="6.16141" cy="32.60485" cx="652.85898"/>
  <circle id="svg_7" fill="#f2f2f2" r="6.16141" cy="329.37951" cx="739.11874"/>
  <circle id="svg_8" fill="#c9c9c9" r="6.16141" cy="198.96296" cx="493.68919"/>
  <circle id="svg_9" fill="#c9c9c9" r="6.16141" cy="157.88689" cx="168.16128"/>
  <circle id="svg_10" fill="#f4f4f4" r="209.48799" cy="410.91879" cx="284.2012"/>
  <circle id="svg_11" opacity="0.2" r="30.80706" cy="328.3526" cx="274.95908"/>
  <circle id="svg_12" opacity="0.2" r="53.3989" cy="534.75989" cx="274.95908"/>
  <circle id="svg_13" opacity="0.2" r="13.34972" cy="453.63464" cx="119.89689"/>
  <circle id="svg_14" opacity="0.2" r="7.09663" cy="141.34643" cx="646.60588"/>
  <circle id="svg_15" opacity="0.2" r="7.09663" cy="282.03199" cx="345.72362"/>
  <circle id="svg_16" opacity="0.2" r="9.24212" cy="422.82758" cx="265.71696"/>
  <circle id="svg_17" opacity="0.2" r="7.09663" cy="198.04609" cx="629.33193"/>
  <circle id="svg_18" opacity="0.2" r="7.09663" cy="372.61941" cx="438.32817"/>
  <circle id="svg_19" opacity="0.2" r="10.25068" cy="191.35289" cx="692.9265"/>
  <circle id="svg_20" opacity="0.2" r="10.25068" cy="444.99766" cx="379.72141"/>
  <circle id="svg_21" opacity="0.2" r="13.34972" cy="328.3526" cx="154.81156"/>
  <path id="svg_22" fill="#e5e5e5" d="m330.58946,534.3377a586.0229,586.0229 0 0 1 -65.92931,-3.80977c-65.831,-7.47613 -126.5456,-25.142 -170.95911,-49.74257c-44.957,-24.90237 -67.96155,-54.06077 -64.777,-82.104c2.20623,-19.42891 20.9853,-36.81905 57.40973,-53.16223a2.05428,2.05428 0 0 1 1.68175,3.74859c-34.98737,15.69736 -52.98122,32.01246 -55.00995,49.87695c-2.98544,26.28527 19.277,54.0026 62.68614,78.04755c43.95221,24.3458 104.12425,41.83723 169.4318,49.25419c65.308,7.417 127.86934,3.86291 176.16181,-10.00628c47.69579,-13.69871 75.60666,-35.71794 78.59109,-62.00321c2.01971,-17.78226 -7.775,-36.63654 -28.325,-54.52609a2.05423,2.05423 0 0 1 2.69762,-3.09876c21.61508,18.81718 31.88812,38.90394 29.709,58.08815c-3.185,28.04325 -32.14183,51.301 -81.53842,65.48706c-32.16152,9.2371 -70.54899,13.95042 -111.83015,13.95042z"/>
  <polygon id="svg_23" fill="#ffb8b8" points="651.786 721.101 653.241 734.201 640.142 732.745 640.142 716.734 651.786 721.101"/>
  <polygon id="svg_24" fill="#ffb8b8" points="788.607 721.101 787.151 734.201 800.251 732.745 800.251 716.734 788.607 721.101"/>
  <path id="svg_25" fill="#2f2e41" d="m650.33033,438.72552l-5.82218,149.921s-18.92206,112.07687 -14.55543,114.988s0,18.92207 0,18.92207l24.74424,2.91109s0,-11.64435 5.82218,-16.011s59.67729,-209.5983 59.67729,-209.5983l55.31066,197.954s-1.45554,11.64435 2.91109,11.64435s5.82218,16.011 5.82218,16.011l24.74424,0l0,-16.011s7.27772,-1.45554 2.91109,-13.09989s-20.37762,-257.63125 -20.37762,-257.63125l-141.18774,-0.00007z"/>
  <path id="svg_26" fill="#2f2e41" d="m643.05261,721.101s-7.27772,-4.36663 -10.18881,-1.45554s-26.19978,32.022 -26.19978,32.022s-32.022,20.37761 -2.91109,26.19979s50.944,-21.83316 52.39957,-24.74425s-1.45554,-26.19979 -2.91108,-23.2887s-5.82218,1.45555 -7.27772,0s-2.91109,-8.7333 -2.91109,-8.7333z"/>
  <path id="svg_27" fill="#2f2e41" d="m797.34025,721.101s7.27772,-4.36663 10.18881,-1.45554s26.19978,32.022 26.19978,32.022s32.022,20.37761 2.91109,26.19979s-50.944,-21.83316 -52.39957,-24.74425s1.45554,-26.19979 2.91108,-23.2887s5.82218,1.45555 7.27772,0s2.91109,-8.7333 2.91109,-8.7333z"/>
  <circle id="svg_28" fill="#ffb8b8" r="29.83865" cy="193.4664" cx="738.39073"/>
  <polygon id="svg_29" fill="#ffb8b8" points="718.741 210.205 714.374 255.327 749.307 262.605 758.041 208.75 718.741 210.205"/>
  <path id="svg_30" fill="#404263" d="m755.12948,245.1382s-8.73326,18.92207 -40.75523,-1.45554l-59.67725,195.04286s80.05491,48.03294 130.99894,11.64435l-17.46657,-196.49841l-13.09989,-8.73326z"/>
  <path id="svg_31" fill="#2f2e41" d="m720.19643,223.305l-27.65533,-4.36663l-2.9111,18.92211s-37.84414,4.36663 -42.21077,18.92207l4.36663,107.71024s-13.09989,23.2887 -1.45554,37.84414c0,0 -18.92207,39.29968 -4.36663,46.5774c0,0 33.4775,-16.011 53.85512,-11.64435c0,0 11.64435,-2.91109 11.64435,-11.64435s8.73327,-202.32063 8.73327,-202.32063z"/>
  <path id="svg_32" fill="#2f2e41" d="m753.67394,226.21613l16.011,4.36663l1.45554,20.37761s39.29968,24.74425 40.75523,39.29969s-29.11088,84.42153 -29.11088,84.42153s11.64435,20.37762 7.27772,33.47751c0,0 18.92207,37.84414 7.27772,48.03295c0,0 -21.83316,5.82217 -24.74424,-2.91109s-29.11088,-109.16578 -17.46653,-157.19873c-0.00002,0 -11.64437,-61.13284 -1.45556,-69.8661z"/>
  <path id="svg_33" fill="#fff" d="m770.41269,273.61839l-0.54785,0l0,-15.00827a8.68638,8.68638 0 0 0 -8.68641,-8.6864l-31.797,0a8.68638,8.68638 0 0 0 -8.68641,8.6864l0,82.33656a8.68638,8.68638 0 0 0 8.68641,8.68639l31.797,0a8.68638,8.68638 0 0 0 8.68641,-8.68639l0,-56.64515l0.54785,0l0,-10.68314z"/>
  <path id="svg_34" fill="#ffb8b8" d="m784.24036,332.47083s-11.64436,-37.84414 -29.11088,-26.19983s11.64435,43.66631 11.64435,43.66631l17.46653,-17.46648z"/>
  <path id="svg_35" fill="#ffb8b8" d="m704.18545,304.81549s20.37761,-24.74424 30.56642,-13.09989s-17.46653,37.84414 -17.46653,37.84414l-13.09989,-24.74425z"/>
  <path id="svg_36" fill="#2f2e41" d="m651.78587,255.327s-7.27772,-1.45555 -11.64435,11.64435s-20.37761,62.58838 -20.37761,71.32164s5.82218,43.66631 37.84414,37.84414s69.8661,-46.5774 69.8661,-46.5774l-20.37761,-30.56642l-43.66632,26.19979l-11.64435,-69.8661z"/>
  <polygon id="svg_37" opacity="0.1" points="658.075 293.062 664.158 324.465 709.28 298.266 667.069 314.277 657.763 291.188 658.075 293.062"/>
  <polygon id="svg_38" opacity="0.1" points="786.424 324.465 792.246 328.832 795.157 308.454 786.424 324.465"/>
  <path id="svg_39" opacity="0.1" d="m651.0581,379.776s42.75331,-11.63082 62.85965,-37.1096c0,0 -20.64888,34.19851 -62.85965,37.1096z"/>
  <path id="svg_40" opacity="0.1" d="m758.76834,353.57621s9.00267,44.05947 32.15667,45.31843c-0.00001,0 -27.79001,8.53669 -32.15667,-45.31843z"/>
  <path id="svg_41" fill="#2f2e41" d="m806.07351,284.43788s4.36663,2.91109 7.27772,16.011s21.83316,62.58838 14.55544,74.23273s-18.92207,37.84414 -43.66631,20.37762l-24.74425,-45.12186l24.74425,-23.2887l10.1888,7.27772l11.64435,-49.48851z"/>
  <path stroke="null" id="svg_42" fill="#2f2e41" d="m711.48412,206.41831s-24.41097,-51.99331 1.59001,-54.69752a66.28869,87.11676 0 0 0 24.93479,-8.92891c8.61872,-5.76376 19.46765,-10.14479 25.24089,-1.2722a42.89933,56.37841 0 0 0 8.72696,10.62485c5.07137,4.42002 10.93914,11.58531 7.68993,19.27153l-5.32676,12.60078l-7.45751,25.20159c1.73666,-10.87014 1.78034,-19.99694 -2.6634,-24.50155c0,0 -24.79259,13.86577 -37.28716,-11.20069c-13.98685,-13.79166 -18.43681,29.61835 -15.44775,32.90212z"/>
  <circle id="svg_43" fill="#00ff83" r="7.27772" cy="279.34348" cx="745.66845"/>
 </g>
</svg>